<svg xmlns="http://www.w3.org/2000/svg" viewBox="0 0 215.6 132.61"><defs><style>.cls-1{fill:#1d1d1b;}</style></defs><g id="Capa_2" data-name="Capa 2"><g id="Capa_1-2" data-name="Capa 1"><path class="cls-1" d="M175.87,126s4.63,4.21-2.6,6.14-13.88-2.16-13.88-2.16-7.68-3.18-8.58-13.2,6.1-21.06,6.1-21.06l26.75-40.74L195.4,37.29s10.27-18.1-9.6-7.29-42,38.81-42,38.81L127.9,93.17a7.42,7.42,0,0,1-8.81,1c-5.19-2.73,0-9,0-9s21.79-40.29,23-45.29,3.95-14.46-1.36-15.6-29.12,19.35-29.12,19.35L99.11,55.27l-14,14.11L62.54,93.63s-7.45,10.24-10.73,7.51,9.82-18.55,9.82-18.55S87.71,51,88.39,48.21c1.58-2.39,15.8-22.08,7.45-29.59S49.78,20.1,49.78,20.1,19.76,29.21,15,31.94,5,38.2,7.9,41.16s2.94,3.18,1.92,4.66-4.17.91-5.42-.22-9.25-8.54,0-19.92,27-15.82,27-15.82S66.71-3.23,95.27.75s15.58,29.71,15.58,29.71l-6.43,11s16.7-15.82,31.49-23.22S157,16,157,16s11.74,8.3-.45,30.27c0,0,28.78-30.5,50.68-31S201,51.52,201,51.52s-22.35,34.37-22.8,38.12c0,0-18.06,32.67-8.47,37.79C169.77,127.43,173.5,124,175.87,126Z"/></g></g></svg>